<?xml version="1.0" standalone="no"?><!DOCTYPE svg PUBLIC "-//W3C//DTD SVG 1.1//EN" "http://www.w3.org/Graphics/SVG/1.1/DTD/svg11.dtd"><svg class="icon" width="200px" height="200.00px" viewBox="0 0 1024 1024" version="1.1" xmlns="http://www.w3.org/2000/svg"><path d="M896 992H128a96.109 96.109 0 0 1-96-96V192a96.109 96.109 0 0 1 96-96h64.004a32 32 0 0 1 0 64H128a32.036 32.036 0 0 0-32 32v704a32.036 32.036 0 0 0 32 32h768a32.036 32.036 0 0 0 32-32V192a32.036 32.036 0 0 0-32-32h-63.999a32 32 0 0 1 0-64H896a96.109 96.109 0 0 1 96 96v704a96.109 96.109 0 0 1-96 96z"  /><path d="M640 160H384a32 32 0 0 1 0-64h256a32 32 0 0 1 0 64z m96 64a32 32 0 0 1-32-32V64a32 32 0 0 1 64 0v128a32 32 0 0 1-32 32z m-448 0a32 32 0 0 1-32-32V64a32 32 0 0 1 64 0v128a32 32 0 0 1-32 32z m672 128H64a32 32 0 0 1 0-64h896a32 32 0 0 1 0 64zM352 704a32 32 0 0 1 0-64 64 64 0 1 0-64-64 32 32 0 0 1-64 0 128 128 0 1 1 128 128z"  /><path d="M448 832H256a32 32 0 0 1-32-32v-32a128.145 128.145 0 0 1 128-128 32 32 0 0 1 0 64 64.072 64.072 0 0 0-64 64h160a32 32 0 0 1 0 64z m256 0a32 32 0 0 1-32-32v-32H544a32 32 0 0 1-32-32v-32a32.001 32.001 0 0 1 5.96-18.6l160-224A32 32 0 0 1 736 480v224h32a32 32 0 0 1 0 64h-32v32a32 32 0 0 1-32 32zM583.325 704H672V579.855z"  /></svg>